<svg id="Capa_1" data-name="Capa 1" xmlns="http://www.w3.org/2000/svg" viewBox="0 0 161.42 97.28"><defs><style>.cls-1{fill:#fff;}</style></defs><title>Sin título-1</title><path class="cls-1" d="M153.85,13.71s-4.81-.41-7.7,2.47c-3.71,3.71-3,63.07-2.75,70.77,0,0-35.72-45.9-51.53-62,0,0,.14,50.7.83,51.53,1.1,1.1,10.58-.42,10.58-.42l-.41,4H88.71c-4.39,0-8.93.41-13,.69l.41-3s4.54.42,7.42-2.47C88,70.73,87.89,22,87.62,21c-.28-1.37-5.5-6.59-9.49-6.59H70.58l.55-3S86.65,9,90,10C98.75,12.47,139,64.83,139,64.83s-.69-48.37-2.2-49.88c-1.1-1.1-11,.41-11,.41l.55-4h14.42c4.4,0,9.35-.42,13.47-.69Z"/><path class="cls-1" d="M44.81,70.53H8.13l-.43-1.3C7.92,69.13,28,52.84,28,40.44c0-8.2-8.2-11.44-14.78-8L8.24,35,7.16,32.78l14.35-8.31C30.78,24.47,35,29.22,35,36.88,35,46.37,20.75,60.6,17.3,64.16L46,64.06Z"/><path class="cls-1" d="M67.87,70.14H60a67.49,67.49,0,0,0-6.9.39l.24-1.71a6.42,6.42,0,0,0,3.25-1.39c2-2.1,1.79-41,.93-41.88-.15-.23-.77-.23-2.71-.23h-2l.23-1.63c2.8-.31,10.71-3,10.71-3-.31,4-1.55,46-.39,47.23.62.62,4.73,0,4.73,0Z"/></svg>